<?xml version="1.0" encoding="UTF-8" standalone="no"?>
<!DOCTYPE svg PUBLIC "-//W3C//DTD SVG 1.1//EN"
 "http://www.w3.org/Graphics/SVG/1.1/DTD/svg11.dtd">
<!-- Generated by graphviz version 2.38.0 (20140413.2041)
 -->
<!-- Title: controllers_diagram Pages: 1 -->
<svg width="532pt" height="518pt"
 viewBox="0.00 0.00 532.00 517.50" xmlns="http://www.w3.org/2000/svg" xmlns:xlink="http://www.w3.org/1999/xlink">
<g id="graph0" class="graph" transform="scale(1 1) rotate(0) translate(212 305.5)">
<title>controllers_diagram</title>
<polygon fill="none" stroke="none" points="-212,212 -212,-305.5 320,-305.5 320,212 -212,212"/>
<!-- _diagram_info -->
<g id="node1" class="node"><title>_diagram_info</title>
<text text-anchor="start" x="88" y="16.4" font-family="Times,serif" font-size="13.00">Controllers diagram</text>
<text text-anchor="start" x="88" y="30.4" font-family="Times,serif" font-size="13.00">Date: Jun 30 2018 &#45; 05:31</text>
<text text-anchor="start" x="88" y="44.4" font-family="Times,serif" font-size="13.00">Migration version: 20180630052225</text>
<text text-anchor="start" x="88" y="58.4" font-family="Times,serif" font-size="13.00">Generated by RailRoady 1.5.3</text>
<text text-anchor="start" x="88" y="72.4" font-family="Times,serif" font-size="13.00">http://railroady.prestonlee.com</text>
</g>
<!-- ApplicationController -->
<g id="node2" class="node"><title>ApplicationController</title>
<path fill="none" stroke="black" d="M-84,-160.5C-84,-160.5 28,-160.5 28,-160.5 34,-160.5 40,-166.5 40,-172.5 40,-172.5 40,-257.5 40,-257.5 40,-263.5 34,-269.5 28,-269.5 28,-269.5 -84,-269.5 -84,-269.5 -90,-269.5 -96,-263.5 -96,-257.5 -96,-257.5 -96,-172.5 -96,-172.5 -96,-166.5 -90,-160.5 -84,-160.5"/>
<text text-anchor="middle" x="-28" y="-254.3" font-family="Times,serif" font-size="14.00">ApplicationController</text>
<polyline fill="none" stroke="black" points="-96,-246.5 40,-246.5 "/>
<polyline fill="none" stroke="black" points="-96,-222.5 40,-222.5 "/>
<polyline fill="none" stroke="black" points="-96,-198.5 40,-198.5 "/>
<text text-anchor="start" x="-88" y="-183.3" font-family="Times,serif" font-size="14.00">_layout</text>
<text text-anchor="start" x="-88" y="-168.3" font-family="Times,serif" font-size="14.00">current_user</text>
</g>
<!-- SessionsController -->
<g id="node3" class="node"><title>SessionsController</title>
<path fill="none" stroke="black" d="M-195.5,-0.5C-195.5,-0.5 -100.5,-0.5 -100.5,-0.5 -94.5,-0.5 -88.5,-6.5 -88.5,-12.5 -88.5,-12.5 -88.5,-111.5 -88.5,-111.5 -88.5,-117.5 -94.5,-123.5 -100.5,-123.5 -100.5,-123.5 -195.5,-123.5 -195.5,-123.5 -201.5,-123.5 -207.5,-117.5 -207.5,-111.5 -207.5,-111.5 -207.5,-12.5 -207.5,-12.5 -207.5,-6.5 -201.5,-0.5 -195.5,-0.5"/>
<text text-anchor="middle" x="-148" y="-108.3" font-family="Times,serif" font-size="14.00">SessionsController</text>
<polyline fill="none" stroke="black" points="-207.5,-100.5 -88.5,-100.5 "/>
<text text-anchor="start" x="-199.5" y="-85.3" font-family="Times,serif" font-size="14.00">create</text>
<text text-anchor="start" x="-199.5" y="-70.3" font-family="Times,serif" font-size="14.00">destroy</text>
<text text-anchor="start" x="-199.5" y="-55.3" font-family="Times,serif" font-size="14.00">new</text>
<polyline fill="none" stroke="black" points="-207.5,-47.5 -88.5,-47.5 "/>
<polyline fill="none" stroke="black" points="-207.5,-23.5 -88.5,-23.5 "/>
<text text-anchor="start" x="-199.5" y="-8.3" font-family="Times,serif" font-size="14.00">_layout</text>
</g>
<!-- LabelsController -->
<g id="node4" class="node"><title>LabelsController</title>
<path fill="none" stroke="black" d="M220,-193C220,-193 304,-193 304,-193 310,-193 316,-199 316,-205 316,-205 316,-289 316,-289 316,-295 310,-301 304,-301 304,-301 220,-301 220,-301 214,-301 208,-295 208,-289 208,-289 208,-205 208,-205 208,-199 214,-193 220,-193"/>
<text text-anchor="middle" x="262" y="-285.8" font-family="Times,serif" font-size="14.00">LabelsController</text>
<polyline fill="none" stroke="black" points="208,-278 316,-278 "/>
<text text-anchor="start" x="216" y="-262.8" font-family="Times,serif" font-size="14.00">new</text>
<text text-anchor="start" x="216" y="-247.8" font-family="Times,serif" font-size="14.00">saveanswer</text>
<polyline fill="none" stroke="black" points="208,-240 316,-240 "/>
<polyline fill="none" stroke="black" points="208,-216 316,-216 "/>
<text text-anchor="start" x="216" y="-200.8" font-family="Times,serif" font-size="14.00">_layout</text>
</g>
<!-- QuestionController -->
<g id="node5" class="node"><title>QuestionController</title>
<path fill="none" stroke="black" d="M91.5,207.5C91.5,207.5 188.5,207.5 188.5,207.5 194.5,207.5 200.5,201.5 200.5,195.5 200.5,195.5 200.5,126.5 200.5,126.5 200.5,120.5 194.5,114.5 188.5,114.5 188.5,114.5 91.5,114.5 91.5,114.5 85.5,114.5 79.5,120.5 79.5,126.5 79.5,126.5 79.5,195.5 79.5,195.5 79.5,201.5 85.5,207.5 91.5,207.5"/>
<text text-anchor="middle" x="140" y="129.7" font-family="Times,serif" font-size="14.00">QuestionController</text>
<polyline fill="none" stroke="black" points="79.5,137.5 200.5,137.5 "/>
<text text-anchor="start" x="87.5" y="152.7" font-family="Times,serif" font-size="14.00">create</text>
<polyline fill="none" stroke="black" points="79.5,160.5 200.5,160.5 "/>
<polyline fill="none" stroke="black" points="79.5,184.5 200.5,184.5 "/>
<text text-anchor="start" x="87.5" y="199.7" font-family="Times,serif" font-size="14.00">_layout</text>
</g>
<!-- PagesController -->
<g id="node6" class="node"><title>PagesController</title>
<path fill="none" stroke="black" d="M220,-32.5C220,-32.5 300,-32.5 300,-32.5 306,-32.5 312,-38.5 312,-44.5 312,-44.5 312,-143.5 312,-143.5 312,-149.5 306,-155.5 300,-155.5 300,-155.5 220,-155.5 220,-155.5 214,-155.5 208,-149.5 208,-143.5 208,-143.5 208,-44.5 208,-44.5 208,-38.5 214,-32.5 220,-32.5"/>
<text text-anchor="middle" x="260" y="-140.3" font-family="Times,serif" font-size="14.00">PagesController</text>
<polyline fill="none" stroke="black" points="208,-132.5 312,-132.5 "/>
<text text-anchor="start" x="216" y="-117.3" font-family="Times,serif" font-size="14.00">about</text>
<text text-anchor="start" x="216" y="-102.3" font-family="Times,serif" font-size="14.00">contact</text>
<text text-anchor="start" x="216" y="-87.3" font-family="Times,serif" font-size="14.00">message</text>
<polyline fill="none" stroke="black" points="208,-79.5 312,-79.5 "/>
<polyline fill="none" stroke="black" points="208,-55.5 312,-55.5 "/>
<text text-anchor="start" x="216" y="-40.3" font-family="Times,serif" font-size="14.00">_layout</text>
</g>
<!-- ImagesController -->
<g id="node7" class="node"><title>ImagesController</title>
<path fill="none" stroke="black" d="M-196,175C-196,175 -108,175 -108,175 -102,175 -96,169 -96,163 -96,163 -96,49 -96,49 -96,43 -102,37 -108,37 -108,37 -196,37 -196,37 -202,37 -208,43 -208,49 -208,49 -208,163 -208,163 -208,169 -202,175 -196,175"/>
<text text-anchor="middle" x="-152" y="52.2" font-family="Times,serif" font-size="14.00">ImagesController</text>
<polyline fill="none" stroke="black" points="-208,60 -96,60 "/>
<text text-anchor="start" x="-200" y="75.2" font-family="Times,serif" font-size="14.00">create</text>
<text text-anchor="start" x="-200" y="90.2" font-family="Times,serif" font-size="14.00">new</text>
<text text-anchor="start" x="-200" y="105.2" font-family="Times,serif" font-size="14.00">show</text>
<polyline fill="none" stroke="black" points="-208,113 -96,113 "/>
<polyline fill="none" stroke="black" points="-208,137 -96,137 "/>
<text text-anchor="start" x="-200" y="152.2" font-family="Times,serif" font-size="14.00">_layout</text>
<text text-anchor="start" x="-200" y="167.2" font-family="Times,serif" font-size="14.00">image_params</text>
</g>
<!-- ProjectsController -->
<g id="node8" class="node"><title>ProjectsController</title>
<path fill="none" stroke="black" d="M-52,143.5C-52,143.5 40,143.5 40,143.5 46,143.5 52,137.5 52,131.5 52,131.5 52,-117.5 52,-117.5 52,-123.5 46,-129.5 40,-129.5 40,-129.5 -52,-129.5 -52,-129.5 -58,-129.5 -64,-123.5 -64,-117.5 -64,-117.5 -64,131.5 -64,131.5 -64,137.5 -58,143.5 -52,143.5"/>
<text text-anchor="middle" x="-6" y="-114.3" font-family="Times,serif" font-size="14.00">ProjectsController</text>
<polyline fill="none" stroke="black" points="-64,-106.5 52,-106.5 "/>
<text text-anchor="start" x="-56" y="-91.3" font-family="Times,serif" font-size="14.00">create</text>
<text text-anchor="start" x="-56" y="-76.3" font-family="Times,serif" font-size="14.00">create_question</text>
<text text-anchor="start" x="-56" y="-61.3" font-family="Times,serif" font-size="14.00">dashboard</text>
<text text-anchor="start" x="-56" y="-46.3" font-family="Times,serif" font-size="14.00">destroy</text>
<text text-anchor="start" x="-56" y="-31.3" font-family="Times,serif" font-size="14.00">edit</text>
<text text-anchor="start" x="-56" y="-16.3" font-family="Times,serif" font-size="14.00">index</text>
<text text-anchor="start" x="-56" y="-1.3" font-family="Times,serif" font-size="14.00">new</text>
<text text-anchor="start" x="-56" y="13.7" font-family="Times,serif" font-size="14.00">retrieve</text>
<text text-anchor="start" x="-56" y="28.7" font-family="Times,serif" font-size="14.00">show</text>
<text text-anchor="start" x="-56" y="43.7" font-family="Times,serif" font-size="14.00">update</text>
<polyline fill="none" stroke="black" points="-64,51.5 52,51.5 "/>
<polyline fill="none" stroke="black" points="-64,75.5 52,75.5 "/>
<text text-anchor="start" x="-56" y="90.7" font-family="Times,serif" font-size="14.00">_layout</text>
<text text-anchor="start" x="-56" y="105.7" font-family="Times,serif" font-size="14.00">image_params</text>
<text text-anchor="start" x="-56" y="120.7" font-family="Times,serif" font-size="14.00">project_params</text>
<text text-anchor="start" x="-56" y="135.7" font-family="Times,serif" font-size="14.00">question_params</text>
</g>
<!-- UsersController -->
<g id="node9" class="node"><title>UsersController</title>
<path fill="none" stroke="black" d="M92.5,-32.5C92.5,-32.5 171.5,-32.5 171.5,-32.5 177.5,-32.5 183.5,-38.5 183.5,-44.5 183.5,-44.5 183.5,-203.5 183.5,-203.5 183.5,-209.5 177.5,-215.5 171.5,-215.5 171.5,-215.5 92.5,-215.5 92.5,-215.5 86.5,-215.5 80.5,-209.5 80.5,-203.5 80.5,-203.5 80.5,-44.5 80.5,-44.5 80.5,-38.5 86.5,-32.5 92.5,-32.5"/>
<text text-anchor="middle" x="132" y="-200.3" font-family="Times,serif" font-size="14.00">UsersController</text>
<polyline fill="none" stroke="black" points="80.5,-192.5 183.5,-192.5 "/>
<text text-anchor="start" x="88.5" y="-177.3" font-family="Times,serif" font-size="14.00">create</text>
<text text-anchor="start" x="88.5" y="-162.3" font-family="Times,serif" font-size="14.00">edit</text>
<text text-anchor="start" x="88.5" y="-147.3" font-family="Times,serif" font-size="14.00">new</text>
<text text-anchor="start" x="88.5" y="-132.3" font-family="Times,serif" font-size="14.00">settings</text>
<text text-anchor="start" x="88.5" y="-117.3" font-family="Times,serif" font-size="14.00">show</text>
<text text-anchor="start" x="88.5" y="-102.3" font-family="Times,serif" font-size="14.00">update</text>
<polyline fill="none" stroke="black" points="80.5,-94.5 183.5,-94.5 "/>
<polyline fill="none" stroke="black" points="80.5,-70.5 183.5,-70.5 "/>
<text text-anchor="start" x="88.5" y="-55.3" font-family="Times,serif" font-size="14.00">_layout</text>
<text text-anchor="start" x="88.5" y="-40.3" font-family="Times,serif" font-size="14.00">user_params</text>
</g>
</g>
</svg>
