<?xml version="1.0" encoding="UTF-8" standalone="no"?>
<!DOCTYPE svg PUBLIC "-//W3C//DTD SVG 1.1//EN"
 "http://www.w3.org/Graphics/SVG/1.1/DTD/svg11.dtd">
<!-- Generated by graphviz version 2.38.0 (20140413.2041)
 -->
<!-- Title: controllers_diagram Pages: 1 -->
<svg width="528pt" height="358pt"
 viewBox="0.00 0.00 527.50 358.00" xmlns="http://www.w3.org/2000/svg" xmlns:xlink="http://www.w3.org/1999/xlink">
<g id="graph0" class="graph" transform="scale(1 1) rotate(0) translate(212 242)">
<title>controllers_diagram</title>
<polygon fill="none" stroke="none" points="-212,116 -212,-242 315.5,-242 315.5,116 -212,116"/>
<!-- _diagram_info -->
<g id="node1" class="node"><title>_diagram_info</title>
<text text-anchor="start" x="72" y="0.4" font-family="Times,serif" font-size="13.00">Controllers diagram</text>
<text text-anchor="start" x="72" y="14.4" font-family="Times,serif" font-size="13.00">Date: May 19 2018 &#45; 02:51</text>
<text text-anchor="start" x="72" y="28.4" font-family="Times,serif" font-size="13.00">Migration version: 20180513003444</text>
<text text-anchor="start" x="72" y="42.4" font-family="Times,serif" font-size="13.00">Generated by RailRoady 1.5.3</text>
<text text-anchor="start" x="72" y="56.4" font-family="Times,serif" font-size="13.00">http://railroady.prestonlee.com</text>
</g>
<!-- ApplicationController -->
<g id="node2" class="node"><title>ApplicationController</title>
<path fill="none" stroke="black" d="M-100,-128.5C-100,-128.5 12,-128.5 12,-128.5 18,-128.5 24,-134.5 24,-140.5 24,-140.5 24,-225.5 24,-225.5 24,-231.5 18,-237.5 12,-237.5 12,-237.5 -100,-237.5 -100,-237.5 -106,-237.5 -112,-231.5 -112,-225.5 -112,-225.5 -112,-140.5 -112,-140.5 -112,-134.5 -106,-128.5 -100,-128.5"/>
<text text-anchor="middle" x="-44" y="-222.3" font-family="Times,serif" font-size="14.00">ApplicationController</text>
<polyline fill="none" stroke="black" points="-112,-214.5 24,-214.5 "/>
<polyline fill="none" stroke="black" points="-112,-190.5 24,-190.5 "/>
<polyline fill="none" stroke="black" points="-112,-166.5 24,-166.5 "/>
<text text-anchor="start" x="-104" y="-151.3" font-family="Times,serif" font-size="14.00">_layout</text>
<text text-anchor="start" x="-104" y="-136.3" font-family="Times,serif" font-size="14.00">current_user</text>
</g>
<!-- SessionsController -->
<g id="node3" class="node"><title>SessionsController</title>
<path fill="none" stroke="black" d="M204.5,-48.5C204.5,-48.5 299.5,-48.5 299.5,-48.5 305.5,-48.5 311.5,-54.5 311.5,-60.5 311.5,-60.5 311.5,-159.5 311.5,-159.5 311.5,-165.5 305.5,-171.5 299.5,-171.5 299.5,-171.5 204.5,-171.5 204.5,-171.5 198.5,-171.5 192.5,-165.5 192.5,-159.5 192.5,-159.5 192.5,-60.5 192.5,-60.5 192.5,-54.5 198.5,-48.5 204.5,-48.5"/>
<text text-anchor="middle" x="252" y="-156.3" font-family="Times,serif" font-size="14.00">SessionsController</text>
<polyline fill="none" stroke="black" points="192.5,-148.5 311.5,-148.5 "/>
<text text-anchor="start" x="200.5" y="-133.3" font-family="Times,serif" font-size="14.00">create</text>
<text text-anchor="start" x="200.5" y="-118.3" font-family="Times,serif" font-size="14.00">destroy</text>
<text text-anchor="start" x="200.5" y="-103.3" font-family="Times,serif" font-size="14.00">new</text>
<polyline fill="none" stroke="black" points="192.5,-95.5 311.5,-95.5 "/>
<polyline fill="none" stroke="black" points="192.5,-71.5 311.5,-71.5 "/>
<text text-anchor="start" x="200.5" y="-56.3" font-family="Times,serif" font-size="14.00">_layout</text>
</g>
<!-- PostsController -->
<g id="node4" class="node"><title>PostsController</title>
<path fill="none" stroke="black" d="M-51.5,111.5C-51.5,111.5 25.5,111.5 25.5,111.5 31.5,111.5 37.5,105.5 37.5,99.5 37.5,99.5 37.5,-89.5 37.5,-89.5 37.5,-95.5 31.5,-101.5 25.5,-101.5 25.5,-101.5 -51.5,-101.5 -51.5,-101.5 -57.5,-101.5 -63.5,-95.5 -63.5,-89.5 -63.5,-89.5 -63.5,99.5 -63.5,99.5 -63.5,105.5 -57.5,111.5 -51.5,111.5"/>
<text text-anchor="middle" x="-13" y="-86.3" font-family="Times,serif" font-size="14.00">PostsController</text>
<polyline fill="none" stroke="black" points="-63.5,-78.5 37.5,-78.5 "/>
<text text-anchor="start" x="-55.5" y="-63.3" font-family="Times,serif" font-size="14.00">create</text>
<text text-anchor="start" x="-55.5" y="-48.3" font-family="Times,serif" font-size="14.00">dashboard</text>
<text text-anchor="start" x="-55.5" y="-33.3" font-family="Times,serif" font-size="14.00">destroy</text>
<text text-anchor="start" x="-55.5" y="-18.3" font-family="Times,serif" font-size="14.00">edit</text>
<text text-anchor="start" x="-55.5" y="-3.3" font-family="Times,serif" font-size="14.00">index</text>
<text text-anchor="start" x="-55.5" y="11.7" font-family="Times,serif" font-size="14.00">new</text>
<text text-anchor="start" x="-55.5" y="26.7" font-family="Times,serif" font-size="14.00">show</text>
<text text-anchor="start" x="-55.5" y="41.7" font-family="Times,serif" font-size="14.00">update</text>
<polyline fill="none" stroke="black" points="-63.5,49.5 37.5,49.5 "/>
<polyline fill="none" stroke="black" points="-63.5,73.5 37.5,73.5 "/>
<text text-anchor="start" x="-55.5" y="88.7" font-family="Times,serif" font-size="14.00">_layout</text>
<text text-anchor="start" x="-55.5" y="103.7" font-family="Times,serif" font-size="14.00">post_params</text>
</g>
<!-- PagesController -->
<g id="node5" class="node"><title>PagesController</title>
<path fill="none" stroke="black" d="M-196,15C-196,15 -116,15 -116,15 -110,15 -104,9 -104,3 -104,3 -104,-81 -104,-81 -104,-87 -110,-93 -116,-93 -116,-93 -196,-93 -196,-93 -202,-93 -208,-87 -208,-81 -208,-81 -208,3 -208,3 -208,9 -202,15 -196,15"/>
<text text-anchor="middle" x="-156" y="-77.8" font-family="Times,serif" font-size="14.00">PagesController</text>
<polyline fill="none" stroke="black" points="-208,-70 -104,-70 "/>
<text text-anchor="start" x="-200" y="-54.8" font-family="Times,serif" font-size="14.00">about</text>
<text text-anchor="start" x="-200" y="-39.8" font-family="Times,serif" font-size="14.00">contact</text>
<polyline fill="none" stroke="black" points="-208,-32 -104,-32 "/>
<polyline fill="none" stroke="black" points="-208,-8 -104,-8 "/>
<text text-anchor="start" x="-200" y="7.2" font-family="Times,serif" font-size="14.00">_layout</text>
</g>
<!-- UsersController -->
<g id="node6" class="node"><title>UsersController</title>
<path fill="none" stroke="black" d="M76.5,-48.5C76.5,-48.5 155.5,-48.5 155.5,-48.5 161.5,-48.5 167.5,-54.5 167.5,-60.5 167.5,-60.5 167.5,-219.5 167.5,-219.5 167.5,-225.5 161.5,-231.5 155.5,-231.5 155.5,-231.5 76.5,-231.5 76.5,-231.5 70.5,-231.5 64.5,-225.5 64.5,-219.5 64.5,-219.5 64.5,-60.5 64.5,-60.5 64.5,-54.5 70.5,-48.5 76.5,-48.5"/>
<text text-anchor="middle" x="116" y="-216.3" font-family="Times,serif" font-size="14.00">UsersController</text>
<polyline fill="none" stroke="black" points="64.5,-208.5 167.5,-208.5 "/>
<text text-anchor="start" x="72.5" y="-193.3" font-family="Times,serif" font-size="14.00">create</text>
<text text-anchor="start" x="72.5" y="-178.3" font-family="Times,serif" font-size="14.00">edit</text>
<text text-anchor="start" x="72.5" y="-163.3" font-family="Times,serif" font-size="14.00">new</text>
<text text-anchor="start" x="72.5" y="-148.3" font-family="Times,serif" font-size="14.00">settings</text>
<text text-anchor="start" x="72.5" y="-133.3" font-family="Times,serif" font-size="14.00">show</text>
<text text-anchor="start" x="72.5" y="-118.3" font-family="Times,serif" font-size="14.00">update</text>
<polyline fill="none" stroke="black" points="64.5,-110.5 167.5,-110.5 "/>
<polyline fill="none" stroke="black" points="64.5,-86.5 167.5,-86.5 "/>
<text text-anchor="start" x="72.5" y="-71.3" font-family="Times,serif" font-size="14.00">_layout</text>
<text text-anchor="start" x="72.5" y="-56.3" font-family="Times,serif" font-size="14.00">user_params</text>
</g>
</g>
</svg>
