<?xml version="1.0" encoding="UTF-8" standalone="no"?>
<!DOCTYPE svg PUBLIC "-//W3C//DTD SVG 1.1//EN"
 "http://www.w3.org/Graphics/SVG/1.1/DTD/svg11.dtd">
<!-- Generated by graphviz version 2.38.0 (20140413.2041)
 -->
<!-- Title: models_diagram Pages: 1 -->
<svg width="467pt" height="302pt"
 viewBox="0.00 0.00 467.34 302.00" xmlns="http://www.w3.org/2000/svg" xmlns:xlink="http://www.w3.org/1999/xlink">
<g id="graph0" class="graph" transform="scale(1 1) rotate(0) translate(4 298)">
<title>models_diagram</title>
<polygon fill="none" stroke="none" points="-4,4 -4,-298 463.343,-298 463.343,4 -4,4"/>
<!-- _diagram_info -->
<g id="node1" class="node"><title>_diagram_info</title>
<text text-anchor="start" x="8" y="-279.6" font-family="Times,serif" font-size="13.00">Models diagram</text>
<text text-anchor="start" x="8" y="-265.6" font-family="Times,serif" font-size="13.00">Date: Jun 30 2018 &#45; 05:31</text>
<text text-anchor="start" x="8" y="-251.6" font-family="Times,serif" font-size="13.00">Migration version: 20180630052225</text>
<text text-anchor="start" x="8" y="-237.6" font-family="Times,serif" font-size="13.00">Generated by RailRoady 1.5.3</text>
<text text-anchor="start" x="8" y="-223.6" font-family="Times,serif" font-size="13.00">http://railroady.prestonlee.com</text>
</g>
<!-- User -->
<g id="node2" class="node"><title>User</title>
<ellipse fill="none" stroke="black" cx="259" cy="-255" rx="27.0966" ry="18"/>
<text text-anchor="middle" x="259" y="-251.3" font-family="Times,serif" font-size="14.00">User</text>
</g>
<!-- Project -->
<g id="node7" class="node"><title>Project</title>
<ellipse fill="none" stroke="black" cx="259" cy="-162" rx="35.9954" ry="18"/>
<text text-anchor="middle" x="259" y="-158.3" font-family="Times,serif" font-size="14.00">Project</text>
</g>
<!-- User&#45;&gt;Project -->
<g id="edge1" class="edge"><title>User&#45;&gt;Project</title>
<path fill="none" stroke="#c64fb7" d="M259,-228.729C259,-216.725 259,-202.362 259,-190.129"/>
<ellipse fill="none" stroke="#c64fb7" cx="259" cy="-232.884" rx="4" ry="4"/>
<polygon fill="#c64fb7" stroke="#c64fb7" points="259,-190.04 263.5,-180.04 259,-185.04 259,-180.04 259,-180.04 259,-180.04 259,-185.04 254.5,-180.04 259,-190.04 259,-190.04"/>
</g>
<!-- Answer -->
<g id="node3" class="node"><title>Answer</title>
<ellipse fill="none" stroke="black" cx="313" cy="-18" rx="38.1938" ry="18"/>
<text text-anchor="middle" x="313" y="-14.3" font-family="Times,serif" font-size="14.00">Answer</text>
</g>
<!-- ApplicationRecord -->
<g id="node4" class="node"><title>ApplicationRecord</title>
<ellipse fill="none" stroke="black" cx="382" cy="-255" rx="77.1866" ry="18"/>
<text text-anchor="middle" x="382" y="-251.3" font-family="Times,serif" font-size="14.00">ApplicationRecord</text>
</g>
<!-- Question -->
<g id="node5" class="node"><title>Question</title>
<ellipse fill="none" stroke="black" cx="209" cy="-90" rx="42.4939" ry="18"/>
<text text-anchor="middle" x="209" y="-86.3" font-family="Times,serif" font-size="14.00">Question</text>
</g>
<!-- AnswerOpt -->
<g id="node6" class="node"><title>AnswerOpt</title>
<ellipse fill="none" stroke="black" cx="205" cy="-18" rx="51.1914" ry="18"/>
<text text-anchor="middle" x="205" y="-14.3" font-family="Times,serif" font-size="14.00">AnswerOpt</text>
</g>
<!-- Question&#45;&gt;AnswerOpt -->
<g id="edge2" class="edge"><title>Question&#45;&gt;AnswerOpt</title>
<path fill="none" stroke="#51612c" d="M207.551,-63.6398C207.232,-58.0629 206.893,-52.1319 206.57,-46.4761"/>
<ellipse fill="none" stroke="#51612c" cx="207.783" cy="-67.7031" rx="4" ry="4"/>
<polygon fill="#51612c" stroke="#51612c" points="206.548,-46.088 210.47,-35.8476 206.263,-41.0962 205.977,-36.1043 205.977,-36.1043 205.977,-36.1043 206.263,-41.0962 201.485,-36.3611 206.548,-46.088 206.548,-46.088"/>
</g>
<!-- Project&#45;&gt;Question -->
<g id="edge4" class="edge"><title>Project&#45;&gt;Question</title>
<path fill="none" stroke="#9648b2" d="M242.687,-138.161C237.577,-131.008 231.915,-123.081 226.714,-115.8"/>
<ellipse fill="none" stroke="#9648b2" cx="245.078" cy="-141.51" rx="4.00002" ry="4.00002"/>
<polygon fill="#9648b2" stroke="#9648b2" points="226.693,-115.771 224.543,-105.018 223.787,-111.702 220.881,-107.633 220.881,-107.633 220.881,-107.633 223.787,-111.702 217.219,-110.249 226.693,-115.771 226.693,-115.771"/>
</g>
<!-- Image -->
<g id="node8" class="node"><title>Image</title>
<ellipse fill="none" stroke="black" cx="309" cy="-90" rx="33.2948" ry="18"/>
<text text-anchor="middle" x="309" y="-86.3" font-family="Times,serif" font-size="14.00">Image</text>
</g>
<!-- Project&#45;&gt;Image -->
<g id="edge3" class="edge"><title>Project&#45;&gt;Image</title>
<path fill="none" stroke="#936ec0" d="M275.385,-138.061C280.573,-130.797 286.326,-122.744 291.584,-115.382"/>
<ellipse fill="none" stroke="#936ec0" cx="272.922" cy="-141.51" rx="4.00002" ry="4.00002"/>
<polygon fill="#936ec0" stroke="#936ec0" points="291.654,-115.285 301.128,-109.763 294.56,-111.216 297.466,-107.147 297.466,-107.147 297.466,-107.147 294.56,-111.216 293.804,-104.532 291.654,-115.285 291.654,-115.285"/>
</g>
<!-- Image&#45;&gt;Answer -->
<g id="edge5" class="edge"><title>Image&#45;&gt;Answer</title>
<path fill="none" stroke="#91b3e2" d="M310.449,-63.6398C310.768,-58.0629 311.107,-52.1319 311.43,-46.4761"/>
<ellipse fill="none" stroke="#91b3e2" cx="310.217" cy="-67.7031" rx="4" ry="4"/>
<polygon fill="#91b3e2" stroke="#91b3e2" points="311.452,-46.088 316.515,-36.3611 311.737,-41.0962 312.023,-36.1043 312.023,-36.1043 312.023,-36.1043 311.737,-41.0962 307.53,-35.8476 311.452,-46.088 311.452,-46.088"/>
</g>
</g>
</svg>
