<?xml version="1.0" encoding="UTF-8" standalone="no"?>
<!DOCTYPE svg PUBLIC "-//W3C//DTD SVG 1.1//EN"
 "http://www.w3.org/Graphics/SVG/1.1/DTD/svg11.dtd">
<!-- Generated by graphviz version 2.38.0 (20140413.2041)
 -->
<!-- Title: models_diagram Pages: 1 -->
<svg width="767pt" height="190pt"
 viewBox="0.00 0.00 766.50 190.00" xmlns="http://www.w3.org/2000/svg" xmlns:xlink="http://www.w3.org/1999/xlink">
<g id="graph0" class="graph" transform="scale(1 1) rotate(0) translate(4 186)">
<title>models_diagram</title>
<polygon fill="none" stroke="none" points="-4,4 -4,-186 762.5,-186 762.5,4 -4,4"/>
<!-- _diagram_info -->
<g id="node1" class="node"><title>_diagram_info</title>
<text text-anchor="start" x="8" y="-115.6" font-family="Times,serif" font-size="13.00">Models diagram</text>
<text text-anchor="start" x="8" y="-101.6" font-family="Times,serif" font-size="13.00">Date: May 19 2018 &#45; 02:51</text>
<text text-anchor="start" x="8" y="-87.6" font-family="Times,serif" font-size="13.00">Migration version: 20180513003444</text>
<text text-anchor="start" x="8" y="-73.6" font-family="Times,serif" font-size="13.00">Generated by RailRoady 1.5.3</text>
<text text-anchor="start" x="8" y="-59.6" font-family="Times,serif" font-size="13.00">http://railroady.prestonlee.com</text>
</g>
<!-- User -->
<g id="node2" class="node"><title>User</title>
<path fill="none" stroke="black" d="M243.5,-0.5C243.5,-0.5 424.5,-0.5 424.5,-0.5 430.5,-0.5 436.5,-6.5 436.5,-12.5 436.5,-12.5 436.5,-169.5 436.5,-169.5 436.5,-175.5 430.5,-181.5 424.5,-181.5 424.5,-181.5 243.5,-181.5 243.5,-181.5 237.5,-181.5 231.5,-175.5 231.5,-169.5 231.5,-169.5 231.5,-12.5 231.5,-12.5 231.5,-6.5 237.5,-0.5 243.5,-0.5"/>
<text text-anchor="middle" x="334" y="-166.3" font-family="Times,serif" font-size="14.00">User</text>
<polyline fill="none" stroke="black" points="231.5,-158.5 436.5,-158.5 "/>
<text text-anchor="start" x="239.5" y="-143.3" font-family="Times,serif" font-size="14.00">id :bigint(20)</text>
<text text-anchor="start" x="239.5" y="-128.3" font-family="Times,serif" font-size="14.00">username :varchar(255)</text>
<text text-anchor="start" x="239.5" y="-113.3" font-family="Times,serif" font-size="14.00">email :varchar(255)</text>
<text text-anchor="start" x="239.5" y="-98.3" font-family="Times,serif" font-size="14.00">encrypted_password :varchar(255)</text>
<text text-anchor="start" x="239.5" y="-83.3" font-family="Times,serif" font-size="14.00">salt :varchar(255)</text>
<text text-anchor="start" x="239.5" y="-68.3" font-family="Times,serif" font-size="14.00">name :varchar(255)</text>
<text text-anchor="start" x="239.5" y="-53.3" font-family="Times,serif" font-size="14.00">organization :varchar(255)</text>
<text text-anchor="start" x="239.5" y="-38.3" font-family="Times,serif" font-size="14.00">rank :varchar(255)</text>
<text text-anchor="start" x="239.5" y="-23.3" font-family="Times,serif" font-size="14.00">created_at :datetime</text>
<text text-anchor="start" x="239.5" y="-8.3" font-family="Times,serif" font-size="14.00">updated_at :datetime</text>
</g>
<!-- ApplicationRecord -->
<g id="node3" class="node"><title>ApplicationRecord</title>
<ellipse fill="none" stroke="black" cx="532" cy="-91" rx="77.1866" ry="18"/>
<text text-anchor="middle" x="532" y="-87.3" font-family="Times,serif" font-size="14.00">ApplicationRecord</text>
</g>
<!-- Post -->
<g id="node4" class="node"><title>Post</title>
<path fill="none" stroke="black" d="M639.5,-30.5C639.5,-30.5 746.5,-30.5 746.5,-30.5 752.5,-30.5 758.5,-36.5 758.5,-42.5 758.5,-42.5 758.5,-139.5 758.5,-139.5 758.5,-145.5 752.5,-151.5 746.5,-151.5 746.5,-151.5 639.5,-151.5 639.5,-151.5 633.5,-151.5 627.5,-145.5 627.5,-139.5 627.5,-139.5 627.5,-42.5 627.5,-42.5 627.5,-36.5 633.5,-30.5 639.5,-30.5"/>
<text text-anchor="middle" x="693" y="-136.3" font-family="Times,serif" font-size="14.00">Post</text>
<polyline fill="none" stroke="black" points="627.5,-128.5 758.5,-128.5 "/>
<text text-anchor="start" x="635.5" y="-113.3" font-family="Times,serif" font-size="14.00">id :bigint(20)</text>
<text text-anchor="start" x="635.5" y="-98.3" font-family="Times,serif" font-size="14.00">author :varchar(255)</text>
<text text-anchor="start" x="635.5" y="-83.3" font-family="Times,serif" font-size="14.00">title :varchar(255)</text>
<text text-anchor="start" x="635.5" y="-68.3" font-family="Times,serif" font-size="14.00">description :text</text>
<text text-anchor="start" x="635.5" y="-53.3" font-family="Times,serif" font-size="14.00">created_at :datetime</text>
<text text-anchor="start" x="635.5" y="-38.3" font-family="Times,serif" font-size="14.00">updated_at :datetime</text>
</g>
</g>
</svg>
