<?xml version="1.0" encoding="UTF-8" standalone="no"?>
<!DOCTYPE svg PUBLIC "-//W3C//DTD SVG 1.1//EN"
 "http://www.w3.org/Graphics/SVG/1.1/DTD/svg11.dtd">
<!-- Generated by graphviz version 2.38.0 (20140413.2041)
 -->
<!-- Title: models_diagram Pages: 1 -->
<svg width="617pt" height="694pt"
 viewBox="0.00 0.00 617.34 694.00" xmlns="http://www.w3.org/2000/svg" xmlns:xlink="http://www.w3.org/1999/xlink">
<g id="graph0" class="graph" transform="scale(1 1) rotate(0) translate(4 690)">
<title>models_diagram</title>
<polygon fill="none" stroke="none" points="-4,4 -4,-690 613.343,-690 613.343,4 -4,4"/>
<!-- _diagram_info -->
<g id="node1" class="node"><title>_diagram_info</title>
<text text-anchor="start" x="8" y="-612.1" font-family="Times,serif" font-size="13.00">Models diagram</text>
<text text-anchor="start" x="8" y="-598.1" font-family="Times,serif" font-size="13.00">Date: Jun 30 2018 &#45; 05:31</text>
<text text-anchor="start" x="8" y="-584.1" font-family="Times,serif" font-size="13.00">Migration version: 20180630052225</text>
<text text-anchor="start" x="8" y="-570.1" font-family="Times,serif" font-size="13.00">Generated by RailRoady 1.5.3</text>
<text text-anchor="start" x="8" y="-556.1" font-family="Times,serif" font-size="13.00">http://railroady.prestonlee.com</text>
</g>
<!-- User -->
<g id="node2" class="node"><title>User</title>
<path fill="none" stroke="black" d="M243.5,-489.5C243.5,-489.5 424.5,-489.5 424.5,-489.5 430.5,-489.5 436.5,-495.5 436.5,-501.5 436.5,-501.5 436.5,-673.5 436.5,-673.5 436.5,-679.5 430.5,-685.5 424.5,-685.5 424.5,-685.5 243.5,-685.5 243.5,-685.5 237.5,-685.5 231.5,-679.5 231.5,-673.5 231.5,-673.5 231.5,-501.5 231.5,-501.5 231.5,-495.5 237.5,-489.5 243.5,-489.5"/>
<text text-anchor="middle" x="334" y="-670.3" font-family="Times,serif" font-size="14.00">User</text>
<polyline fill="none" stroke="black" points="231.5,-662.5 436.5,-662.5 "/>
<text text-anchor="start" x="239.5" y="-647.3" font-family="Times,serif" font-size="14.00">id :bigint(20)</text>
<text text-anchor="start" x="239.5" y="-632.3" font-family="Times,serif" font-size="14.00">username :varchar(255)</text>
<text text-anchor="start" x="239.5" y="-617.3" font-family="Times,serif" font-size="14.00">email :varchar(255)</text>
<text text-anchor="start" x="239.5" y="-602.3" font-family="Times,serif" font-size="14.00">encrypted_password :varchar(255)</text>
<text text-anchor="start" x="239.5" y="-587.3" font-family="Times,serif" font-size="14.00">salt :varchar(255)</text>
<text text-anchor="start" x="239.5" y="-572.3" font-family="Times,serif" font-size="14.00">name :varchar(255)</text>
<text text-anchor="start" x="239.5" y="-557.3" font-family="Times,serif" font-size="14.00">organization :varchar(255)</text>
<text text-anchor="start" x="239.5" y="-542.3" font-family="Times,serif" font-size="14.00">rank :varchar(255)</text>
<text text-anchor="start" x="239.5" y="-527.3" font-family="Times,serif" font-size="14.00">created_at :datetime</text>
<text text-anchor="start" x="239.5" y="-512.3" font-family="Times,serif" font-size="14.00">updated_at :datetime</text>
<text text-anchor="start" x="239.5" y="-497.3" font-family="Times,serif" font-size="14.00">points :int(11)</text>
</g>
<!-- Project -->
<g id="node7" class="node"><title>Project</title>
<path fill="none" stroke="black" d="M280.5,-331.5C280.5,-331.5 387.5,-331.5 387.5,-331.5 393.5,-331.5 399.5,-337.5 399.5,-343.5 399.5,-343.5 399.5,-440.5 399.5,-440.5 399.5,-446.5 393.5,-452.5 387.5,-452.5 387.5,-452.5 280.5,-452.5 280.5,-452.5 274.5,-452.5 268.5,-446.5 268.5,-440.5 268.5,-440.5 268.5,-343.5 268.5,-343.5 268.5,-337.5 274.5,-331.5 280.5,-331.5"/>
<text text-anchor="middle" x="334" y="-437.3" font-family="Times,serif" font-size="14.00">Project</text>
<polyline fill="none" stroke="black" points="268.5,-429.5 399.5,-429.5 "/>
<text text-anchor="start" x="276.5" y="-414.3" font-family="Times,serif" font-size="14.00">id :bigint(20)</text>
<text text-anchor="start" x="276.5" y="-399.3" font-family="Times,serif" font-size="14.00">name :text</text>
<text text-anchor="start" x="276.5" y="-384.3" font-family="Times,serif" font-size="14.00">created_at :datetime</text>
<text text-anchor="start" x="276.5" y="-369.3" font-family="Times,serif" font-size="14.00">updated_at :datetime</text>
<text text-anchor="start" x="276.5" y="-354.3" font-family="Times,serif" font-size="14.00">user_id :bigint(20)</text>
<text text-anchor="start" x="276.5" y="-339.3" font-family="Times,serif" font-size="14.00">description :text</text>
</g>
<!-- User&#45;&gt;Project -->
<g id="edge1" class="edge"><title>User&#45;&gt;Project</title>
<path fill="none" stroke="#42b713" d="M334,-481.246C334,-474.991 334,-468.783 334,-462.729"/>
<ellipse fill="none" stroke="#42b713" cx="334" cy="-485.467" rx="4" ry="4"/>
<polygon fill="#42b713" stroke="#42b713" points="334,-462.704 338.5,-452.704 334,-457.704 334,-452.704 334,-452.704 334,-452.704 334,-457.704 329.5,-452.704 334,-462.704 334,-462.704"/>
</g>
<!-- Answer -->
<g id="node3" class="node"><title>Answer</title>
<path fill="none" stroke="black" d="M357.5,-0.5C357.5,-0.5 464.5,-0.5 464.5,-0.5 470.5,-0.5 476.5,-6.5 476.5,-12.5 476.5,-12.5 476.5,-124.5 476.5,-124.5 476.5,-130.5 470.5,-136.5 464.5,-136.5 464.5,-136.5 357.5,-136.5 357.5,-136.5 351.5,-136.5 345.5,-130.5 345.5,-124.5 345.5,-124.5 345.5,-12.5 345.5,-12.5 345.5,-6.5 351.5,-0.5 357.5,-0.5"/>
<text text-anchor="middle" x="411" y="-121.3" font-family="Times,serif" font-size="14.00">Answer</text>
<polyline fill="none" stroke="black" points="345.5,-113.5 476.5,-113.5 "/>
<text text-anchor="start" x="353.5" y="-98.3" font-family="Times,serif" font-size="14.00">id :bigint(20)</text>
<text text-anchor="start" x="353.5" y="-83.3" font-family="Times,serif" font-size="14.00">created_at :datetime</text>
<text text-anchor="start" x="353.5" y="-68.3" font-family="Times,serif" font-size="14.00">updated_at :datetime</text>
<text text-anchor="start" x="353.5" y="-53.3" font-family="Times,serif" font-size="14.00">user_id :bigint(20)</text>
<text text-anchor="start" x="353.5" y="-38.3" font-family="Times,serif" font-size="14.00">image_id :bigint(20)</text>
<text text-anchor="start" x="353.5" y="-23.3" font-family="Times,serif" font-size="14.00">opt_id :int(11)</text>
<text text-anchor="start" x="353.5" y="-8.3" font-family="Times,serif" font-size="14.00">project_id :int(11)</text>
</g>
<!-- ApplicationRecord -->
<g id="node4" class="node"><title>ApplicationRecord</title>
<ellipse fill="none" stroke="black" cx="532" cy="-587.5" rx="77.1866" ry="18"/>
<text text-anchor="middle" x="532" y="-583.8" font-family="Times,serif" font-size="14.00">ApplicationRecord</text>
</g>
<!-- Question -->
<g id="node5" class="node"><title>Question</title>
<path fill="none" stroke="black" d="M203.5,-173.5C203.5,-173.5 312.5,-173.5 312.5,-173.5 318.5,-173.5 324.5,-179.5 324.5,-185.5 324.5,-185.5 324.5,-282.5 324.5,-282.5 324.5,-288.5 318.5,-294.5 312.5,-294.5 312.5,-294.5 203.5,-294.5 203.5,-294.5 197.5,-294.5 191.5,-288.5 191.5,-282.5 191.5,-282.5 191.5,-185.5 191.5,-185.5 191.5,-179.5 197.5,-173.5 203.5,-173.5"/>
<text text-anchor="middle" x="258" y="-279.3" font-family="Times,serif" font-size="14.00">Question</text>
<polyline fill="none" stroke="black" points="191.5,-271.5 324.5,-271.5 "/>
<text text-anchor="start" x="199.5" y="-256.3" font-family="Times,serif" font-size="14.00">id :bigint(20)</text>
<text text-anchor="start" x="199.5" y="-241.3" font-family="Times,serif" font-size="14.00">nviews :int(11)</text>
<text text-anchor="start" x="199.5" y="-226.3" font-family="Times,serif" font-size="14.00">description :text</text>
<text text-anchor="start" x="199.5" y="-211.3" font-family="Times,serif" font-size="14.00">created_at :datetime</text>
<text text-anchor="start" x="199.5" y="-196.3" font-family="Times,serif" font-size="14.00">updated_at :datetime</text>
<text text-anchor="start" x="199.5" y="-181.3" font-family="Times,serif" font-size="14.00">project_id :bigint(20)</text>
</g>
<!-- AnswerOpt -->
<g id="node6" class="node"><title>AnswerOpt</title>
<path fill="none" stroke="black" d="M198.5,-0.5C198.5,-0.5 315.5,-0.5 315.5,-0.5 321.5,-0.5 327.5,-6.5 327.5,-12.5 327.5,-12.5 327.5,-124.5 327.5,-124.5 327.5,-130.5 321.5,-136.5 315.5,-136.5 315.5,-136.5 198.5,-136.5 198.5,-136.5 192.5,-136.5 186.5,-130.5 186.5,-124.5 186.5,-124.5 186.5,-12.5 186.5,-12.5 186.5,-6.5 192.5,-0.5 198.5,-0.5"/>
<text text-anchor="middle" x="257" y="-121.3" font-family="Times,serif" font-size="14.00">AnswerOpt</text>
<polyline fill="none" stroke="black" points="186.5,-113.5 327.5,-113.5 "/>
<text text-anchor="start" x="194.5" y="-98.3" font-family="Times,serif" font-size="14.00">id :bigint(20)</text>
<text text-anchor="start" x="194.5" y="-83.3" font-family="Times,serif" font-size="14.00">text :text</text>
<text text-anchor="start" x="194.5" y="-68.3" font-family="Times,serif" font-size="14.00">nanswers :int(11)</text>
<text text-anchor="start" x="194.5" y="-53.3" font-family="Times,serif" font-size="14.00">created_at :datetime</text>
<text text-anchor="start" x="194.5" y="-38.3" font-family="Times,serif" font-size="14.00">updated_at :datetime</text>
<text text-anchor="start" x="194.5" y="-23.3" font-family="Times,serif" font-size="14.00">question_id :bigint(20)</text>
<text text-anchor="start" x="194.5" y="-8.3" font-family="Times,serif" font-size="14.00">image_id :int(11)</text>
</g>
<!-- Question&#45;&gt;AnswerOpt -->
<g id="edge2" class="edge"><title>Question&#45;&gt;AnswerOpt</title>
<path fill="none" stroke="#13d7de" d="M257.584,-164.905C257.547,-158.915 257.51,-152.824 257.473,-146.766"/>
<ellipse fill="none" stroke="#13d7de" cx="257.609" cy="-169.047" rx="4" ry="4"/>
<polygon fill="#13d7de" stroke="#13d7de" points="257.472,-146.624 261.91,-136.597 257.441,-141.625 257.411,-136.625 257.411,-136.625 257.411,-136.625 257.441,-141.625 252.911,-136.652 257.472,-146.624 257.472,-146.624"/>
</g>
<!-- Project&#45;&gt;Question -->
<g id="edge4" class="edge"><title>Project&#45;&gt;Question</title>
<path fill="none" stroke="#398a9e" d="M301.257,-323.79C298.017,-317.141 294.726,-310.384 291.479,-303.72"/>
<ellipse fill="none" stroke="#398a9e" cx="303.082" cy="-327.537" rx="4.00002" ry="4.00002"/>
<polygon fill="#398a9e" stroke="#398a9e" points="291.468,-303.697 291.134,-292.736 289.278,-299.202 287.088,-294.707 287.088,-294.707 287.088,-294.707 289.278,-299.202 283.043,-296.678 291.468,-303.697 291.468,-303.697"/>
</g>
<!-- Image -->
<g id="node8" class="node"><title>Image</title>
<path fill="none" stroke="black" d="M355.5,-173.5C355.5,-173.5 464.5,-173.5 464.5,-173.5 470.5,-173.5 476.5,-179.5 476.5,-185.5 476.5,-185.5 476.5,-282.5 476.5,-282.5 476.5,-288.5 470.5,-294.5 464.5,-294.5 464.5,-294.5 355.5,-294.5 355.5,-294.5 349.5,-294.5 343.5,-288.5 343.5,-282.5 343.5,-282.5 343.5,-185.5 343.5,-185.5 343.5,-179.5 349.5,-173.5 355.5,-173.5"/>
<text text-anchor="middle" x="410" y="-279.3" font-family="Times,serif" font-size="14.00">Image</text>
<polyline fill="none" stroke="black" points="343.5,-271.5 476.5,-271.5 "/>
<text text-anchor="start" x="351.5" y="-256.3" font-family="Times,serif" font-size="14.00">id :bigint(20)</text>
<text text-anchor="start" x="351.5" y="-241.3" font-family="Times,serif" font-size="14.00">link :text</text>
<text text-anchor="start" x="351.5" y="-226.3" font-family="Times,serif" font-size="14.00">nviews :int(11)</text>
<text text-anchor="start" x="351.5" y="-211.3" font-family="Times,serif" font-size="14.00">created_at :datetime</text>
<text text-anchor="start" x="351.5" y="-196.3" font-family="Times,serif" font-size="14.00">updated_at :datetime</text>
<text text-anchor="start" x="351.5" y="-181.3" font-family="Times,serif" font-size="14.00">project_id :bigint(20)</text>
</g>
<!-- Project&#45;&gt;Image -->
<g id="edge3" class="edge"><title>Project&#45;&gt;Image</title>
<path fill="none" stroke="#46c625" d="M366.743,-323.79C369.983,-317.141 373.274,-310.384 376.521,-303.72"/>
<ellipse fill="none" stroke="#46c625" cx="364.918" cy="-327.537" rx="4.00002" ry="4.00002"/>
<polygon fill="#46c625" stroke="#46c625" points="376.532,-303.697 384.957,-296.678 378.722,-299.202 380.912,-294.707 380.912,-294.707 380.912,-294.707 378.722,-299.202 376.866,-292.736 376.532,-303.697 376.532,-303.697"/>
</g>
<!-- Image&#45;&gt;Answer -->
<g id="edge5" class="edge"><title>Image&#45;&gt;Answer</title>
<path fill="none" stroke="#2e896a" d="M410.416,-164.905C410.453,-158.915 410.49,-152.824 410.527,-146.766"/>
<ellipse fill="none" stroke="#2e896a" cx="410.391" cy="-169.047" rx="4" ry="4"/>
<polygon fill="#2e896a" stroke="#2e896a" points="410.528,-146.624 415.089,-136.652 410.559,-141.625 410.589,-136.625 410.589,-136.625 410.589,-136.625 410.559,-141.625 406.09,-136.597 410.528,-146.624 410.528,-146.624"/>
</g>
</g>
</svg>
